<svg width="2977" height="387" viewBox="0 0 2977 387" fill="none" xmlns="http://www.w3.org/2000/svg">
<path d="M101.79 78.0268C135.049 69.5391 173.889 77.7714 186.497 113.059C201.848 115.656 217.085 125.507 224.604 139.263C226.546 142.815 228.694 146.327 224.435 149.194C221.999 150.832 215.804 149.59 212.372 149.773C183.32 151.32 155.714 168.608 138.326 191.147C91.2641 252.151 114.181 339.935 182.565 372.939C186.655 374.913 199.752 377.768 193.445 385.094C190.98 387.957 188.169 386.732 185.391 386.755C66.4578 387.805 -17.6515 272.007 3.17117 158.27C17.9711 77.4472 85.359 10.8568 167.633 0.630223C170.255 0.303111 175.221 -0.485977 177.467 0.423626C180.414 1.61443 181.232 5.71482 180.055 8.45223C178.877 11.1896 167.28 14.4895 164.017 15.9557C136.689 28.2339 114.198 50.8277 101.793 78.0296L101.79 78.0268ZM137.401 18.3517C79.8647 36.5552 33.1099 85.8631 17.6322 144.017C33.0955 116.11 58.3642 93.5532 88.4494 82.4945C96.1323 62.4402 108.603 44.2711 124.465 29.8121C128.116 26.4836 132.639 23.5367 136.201 20.3029C136.838 19.7233 137.643 19.4564 137.401 18.3517ZM174.742 113.039C175.681 112.124 169.985 104.227 168.983 103.016C144.243 73.1832 93.915 86.6321 66.2194 105.335C30.8984 129.185 6.67225 176.559 12.2585 219.426C22.1615 295.407 81.8781 361.768 158.385 374.155C160.059 374.276 158.873 373.467 158.29 373.097C152.701 369.544 145.429 366.93 139.406 363.269C85.405 330.434 51.8647 266.553 67.0351 203.136C78.7848 154.026 123.259 113.969 174.744 113.039H174.742ZM167.647 151.291C173.53 145.366 177.875 136.069 178.214 127.705C178.398 123.16 178.662 122.508 173.886 122.804C110.117 126.741 67.9254 185.348 74.2239 247.038C77.9634 283.646 99.2227 320.609 128.507 342.583C127.679 338.274 124.155 334.979 122.007 331.292C91.063 278.182 99.2858 209.845 145.438 168.416C152.112 162.425 161.783 157.202 167.647 151.294V151.291ZM212.076 140.009C212.334 139.013 211.662 138.861 211.22 138.287C206.05 131.558 196.871 126.021 188.53 124.52C189.091 131.705 186.784 138.5 184.51 145.174C193.373 142.158 202.584 139.719 212.076 140.009ZM129.65 343.169V343.743C130.023 343.55 130.023 343.361 129.65 343.169Z" fill="white"/>
<path d="M242.151 385.433C240.609 383.889 240.284 380.721 241.1 378.761C241.976 376.661 254.811 371.809 257.847 370.245C280.918 358.366 300.598 339.189 313.876 317.198C314.373 316.378 318.092 309.609 317.764 309.313C288.11 317.408 252.232 313.953 236.102 284.444C234.221 281.001 233.945 276.441 230.036 275.583C217.985 272.94 208.797 268.78 200.293 259.388C197.174 255.942 191.878 249.219 193.38 244.427C194.704 240.206 201.022 241.922 204.314 241.584C315.136 230.106 343.228 77.1291 249.015 22.4783C242.142 18.4927 235.307 16.6563 228.615 13.0179C223.1 10.0194 224.528 2.94914 230.157 2.26909C236.384 1.52018 250.397 4.06821 257.014 5.30493C416.082 35.0521 472.533 236.68 348.487 342.575C323.882 363.582 281.223 385.1 248.55 386.77C246.278 386.885 243.88 387.157 242.151 385.43V385.433ZM357.052 72.6557C331.608 45.4221 298.154 25.2301 261.48 17.2101L270.125 23.7696C329.822 49.8755 368.118 119.915 352.643 184.327C340.437 235.139 296.787 273.161 244.245 276.602C261.928 314.294 313.344 304.564 342.852 287.6C379.687 266.424 409.358 219.371 404.43 175.954C400.001 136.93 383.693 101.175 357.049 72.6557H357.052ZM241.372 257.948C241.028 260.496 241.622 263.638 241.372 266.269C278.948 265.133 315.378 241.664 332.605 208.493C354.119 167.065 348.114 119.576 322.601 81.5308C317.27 73.5825 307.434 61.1809 299.978 55.3532C299.366 54.874 296.439 52.8769 295.945 53.3618C298.556 58.7821 301.916 63.7605 304.478 69.221C328.753 120.999 316.662 183.171 274.123 221.228C261.963 232.106 243.886 239.345 241.372 257.948ZM231.03 265.118C229.953 258.129 232.403 251.5 234.772 245.047C225.975 248.284 216.836 250.447 207.482 251.354C213.281 258.309 221.983 263.695 231.03 265.118ZM282.156 367.84C337.677 349.76 382.855 302.673 397.907 246.195C384.923 268.269 366.851 286.539 344.205 298.705C341.87 299.959 332.61 303.546 331.708 304.297C331.039 304.857 325.485 317.686 324.186 320.025C313.784 338.782 298.978 354.724 282.156 367.84Z" fill="white"/>
<path d="M174.74 113.039C123.255 113.966 78.7806 154.023 67.0309 203.135C51.8605 266.552 85.4008 330.434 139.402 363.269C145.425 366.93 152.697 369.544 158.286 373.096C158.869 373.466 160.055 374.276 158.381 374.155C81.8739 361.768 22.1573 295.407 12.2543 219.425C6.66807 176.562 30.8942 129.188 66.2152 105.335C93.9108 86.6317 144.239 73.1828 168.979 103.016C169.984 104.227 175.677 112.124 174.737 113.039H174.74ZM138.394 96.5312C128.531 98.5799 131.262 114.895 142.616 112.215C151.99 110.003 149.713 94.1783 138.394 96.5312Z" fill="white"/>
<path d="M212.074 140.009C202.582 139.719 193.371 142.158 184.508 145.174C186.783 138.499 189.089 131.705 188.529 124.52C196.869 126.02 206.051 131.558 211.218 138.287C211.661 138.864 212.333 139.016 212.074 140.009Z" fill="white"/>
<path d="M137.402 18.3516C137.643 19.4563 136.839 19.7231 136.202 20.3028C132.64 23.5366 128.117 26.4835 124.466 29.812C108.604 44.2709 96.1329 62.44 88.4501 82.4943C58.3649 93.5559 33.0962 116.109 17.6328 144.017C33.1105 85.863 79.8654 36.5551 137.402 18.3516Z" fill="white"/>
<path d="M167.646 151.291C161.781 157.199 152.111 162.422 145.436 168.413C99.2847 209.842 91.0618 278.18 122.006 331.289C124.154 334.977 127.675 338.274 128.505 342.581C99.2215 320.607 77.9622 283.643 74.2227 247.035C67.9242 185.348 110.115 126.738 173.884 122.801C178.661 122.505 178.397 123.157 178.213 127.702C177.874 136.063 173.528 145.36 167.646 151.289V151.291Z" fill="white"/>
<path d="M1828.65 124.169C1829.02 124.361 1829.02 124.551 1828.65 124.743V124.169Z" fill="white"/>
<path d="M357.051 72.6555C383.698 101.175 400.006 136.93 404.431 175.954C409.36 219.371 379.688 266.424 342.854 287.6C313.346 304.564 261.927 314.294 244.246 276.602C296.788 273.161 340.438 235.139 352.645 184.327C368.12 119.915 329.823 49.8753 270.127 23.7694L261.482 17.21C298.152 25.23 331.607 45.422 357.053 72.6555H357.051ZM277.427 276.711C267.654 278.051 268.825 293.933 278.93 293.218C290.24 292.418 288.201 275.233 277.427 276.711Z" fill="white"/>
<path d="M241.372 257.947C243.885 239.345 261.962 232.105 274.123 221.228C316.661 183.171 328.753 121.002 304.478 69.2207C301.916 63.7573 298.556 58.7818 295.945 53.3614C296.439 52.8765 299.366 54.8736 299.977 55.3528C307.433 61.1806 317.27 73.5822 322.601 81.5304C348.114 119.576 354.119 167.065 332.604 208.493C315.378 241.663 278.948 265.132 241.372 266.269C241.622 263.637 241.028 260.495 241.372 257.947Z" fill="white"/>
<path d="M282.156 367.84C298.981 354.724 313.784 338.782 324.186 320.024C325.485 317.686 331.039 304.854 331.708 304.297C332.61 303.545 341.87 299.961 344.205 298.705C366.849 286.538 384.923 268.269 397.907 246.194C382.858 302.673 337.677 349.76 282.156 367.84Z" fill="white"/>
<path d="M231.033 265.117C221.986 263.694 213.283 258.308 207.484 251.353C216.839 250.449 225.981 248.283 234.775 245.046C232.403 251.499 229.956 258.125 231.033 265.117Z" fill="white"/>
<path d="M477 320V273.166H627.205C641.228 273.166 652.235 270.897 660.233 266.342C668.225 261.793 672.224 254.231 672.224 243.656C672.224 237.018 670.746 231.614 667.794 227.426C664.843 223.249 660.349 220.178 654.325 218.205C648.294 216.239 640.605 215.256 631.262 215.256H557.819V173.21H608.746C621.785 173.21 632.24 170.999 640.116 166.572C647.986 162.145 651.926 154.281 651.926 142.972C651.926 135.352 650.268 129.453 646.944 125.271C643.62 121.088 639.499 118.144 634.58 116.417C629.655 114.701 624.737 113.834 619.818 113.834H477V67H623.142C643.067 67 659.552 69.9435 672.591 75.8479C685.63 81.7523 695.409 89.8614 701.929 100.187C708.448 110.512 711.708 122.199 711.708 135.224C711.708 148.248 708.815 158.341 703.035 166.945C697.249 175.554 689.868 182.564 680.892 187.962C671.91 193.372 662.439 197.246 652.474 199.585C642.508 201.923 633.468 203.087 625.348 203.087V180.592C636.419 180.592 648.102 181.394 660.408 182.988C672.707 184.588 684.268 187.66 695.101 192.209C705.922 196.763 714.782 203.581 721.668 212.679C728.554 221.777 732 233.702 732 248.455C732 270.828 723.513 288.349 706.539 301.007C689.565 313.671 664.465 320 631.256 320H477ZM518.335 294.183V93.9218H577.016V294.178H518.335V294.183Z" fill="white"/>
<path d="M818.154 325C807.552 325 797.755 322.979 788.763 318.925C779.766 314.877 772.552 308.674 767.135 300.328C761.712 291.988 759 281.429 759 268.664C759.245 255.41 763.123 244.486 770.645 235.89C778.162 227.3 787.521 220.923 798.741 216.741C809.955 212.571 821.227 210.486 832.569 210.486C847.847 210.486 860.664 212.322 871.015 216.01C881.366 219.692 891.839 224.356 902.441 230.001V263.878C889.623 257.501 878.281 253.569 868.426 252.094C858.565 250.619 850.43 249.887 844.027 249.887C838.855 249.887 834.044 250.503 829.606 251.722C825.169 252.953 821.594 254.736 818.888 257.06C816.171 259.394 814.824 262.531 814.824 266.451C814.824 269.396 815.751 271.852 817.6 273.815C819.448 275.784 821.909 277.19 824.994 278.049C828.073 278.915 831.338 279.339 834.791 279.339C838.978 279.339 844.587 278.235 851.614 276.022C858.641 273.815 866.525 270.133 875.272 264.982C884.019 259.824 893.075 252.831 902.446 243.992L901.338 280.076C892.959 289.648 884.264 297.813 875.272 304.562C866.274 311.317 857.09 316.41 847.73 319.843C838.359 323.281 828.504 324.994 818.154 324.994V325ZM932.764 322.793C924.629 322.793 917.048 320.824 910.027 316.898C903 312.978 897.332 307.141 893.023 299.411C888.708 291.68 886.556 282.289 886.556 271.242V211.224C886.556 206.072 884.766 201.833 881.191 198.522C877.616 195.206 872.747 192.755 866.589 191.158C860.425 189.566 853.649 188.765 846.255 188.765C837.875 188.765 828.015 189.996 816.678 192.447C805.342 194.904 793.51 198.464 781.188 203.122L770.097 161.143C784.886 155.01 799.546 150.282 814.089 146.972C828.627 143.655 842.062 142 854.39 142C873.616 142 889.571 145.078 902.266 151.211C914.955 157.35 924.384 165.754 930.548 176.435C936.706 187.11 939.791 199.573 939.791 213.808V266.097C939.791 270.029 940.718 272.782 942.566 274.384C944.415 275.987 946.572 276.777 949.039 276.777C951.01 276.777 952.795 276.591 954.398 276.226C955.996 275.86 957.291 275.552 958.282 275.308L969 314.708C965.799 316.428 960.988 318.205 954.579 320.046C948.17 321.887 940.904 322.81 932.77 322.81L932.764 322.793Z" fill="white"/>
<path d="M980 190.281V146.424H1067.15V190.281H980ZM980 320V276.142H1105.92V320H980ZM1014.71 305.259V146.424H1070.84V305.259H1014.71ZM1050.16 253.664V211.283C1058.77 198.018 1068.44 186.166 1079.15 175.72C1089.85 165.286 1100.81 157.055 1112.01 151.033C1123.21 145.017 1133.85 142 1143.95 142H1165V223.083H1116.63V198.018C1112.44 197.78 1106.71 199.861 1099.46 204.278C1092.19 208.702 1084.25 215.032 1075.64 223.257C1067.02 231.494 1058.53 241.626 1050.16 253.664Z" fill="white"/>
<path d="M1176 110.857V67H1257.23V110.857H1176ZM1205.54 319.838V67H1260.55V285.928L1237.29 319.838H1205.53H1205.54ZM1328.87 141.819C1343.15 141.819 1356.31 145.755 1368.38 153.614C1380.44 161.48 1390.22 172.293 1397.74 186.047C1405.24 199.808 1409 215.533 1409 233.223C1409 246.251 1406.72 258.349 1402.17 269.528C1397.61 280.713 1391.15 290.416 1382.78 298.648C1374.41 306.88 1364.56 313.332 1353.24 317.995C1341.91 322.657 1329.36 325 1315.58 325C1301.05 325 1288.56 322.053 1278.1 316.158C1267.63 310.257 1258.77 303.2 1251.51 294.962C1244.25 286.736 1238.03 279.301 1232.86 272.667V234.706C1238.27 241.583 1244.68 248.402 1252.06 255.163C1259.45 261.924 1267.39 267.453 1275.88 271.743C1284.37 276.045 1292.8 278.196 1301.17 278.196C1308.8 278.196 1315.63 277.092 1321.66 274.877C1327.69 272.667 1332.86 269.534 1337.17 265.476C1341.48 261.424 1344.74 256.576 1346.96 250.919C1349.17 245.269 1350.28 239.124 1350.28 232.491C1350.28 224.143 1348.62 216.643 1345.3 210.01C1341.97 203.377 1337.17 198.157 1330.89 194.349C1324.61 190.541 1317.17 188.634 1308.55 188.634C1299.94 188.634 1290.76 192.262 1281.04 199.505C1271.32 206.755 1262.09 216.893 1253.35 229.91C1244.61 242.938 1237.53 258.169 1232.12 275.615V235.438C1237.78 216.271 1245.78 199.692 1256.12 185.681C1266.45 171.677 1277.96 160.864 1290.64 153.248C1303.32 145.632 1316.06 141.819 1328.86 141.819H1328.87Z" fill="white"/>
<path d="M1529.74 324.994C1517 324.994 1504.58 323.089 1492.46 319.285C1480.34 315.487 1469.38 309.842 1459.59 302.35C1449.79 294.864 1442.08 285.595 1436.45 274.549C1430.81 263.508 1428 250.743 1428 236.259C1428 221.774 1430.81 208.765 1436.45 197.231C1442.08 185.697 1449.73 175.818 1459.4 167.589C1469.07 159.371 1480.02 153.046 1492.28 148.627C1504.52 144.213 1517.37 142 1530.84 142C1547.01 142 1561.2 144.271 1573.45 148.812C1585.69 153.36 1595.3 159.859 1602.28 168.332C1609.26 176.8 1612.75 186.806 1612.75 198.34C1612.75 209.874 1609.32 220.311 1602.47 228.163C1595.61 236.021 1586.67 241.91 1575.65 245.836C1564.64 249.762 1552.88 251.725 1540.4 251.725C1525.46 251.725 1512.54 249.889 1501.65 246.201C1490.75 242.519 1479.92 237.862 1469.14 232.211V200.913C1482.61 207.302 1493.81 211.222 1502.75 212.697C1511.68 214.172 1519.46 214.91 1526.08 214.91C1532.93 214.666 1538.62 213.864 1543.15 212.511C1547.68 211.169 1551.11 209.259 1553.44 206.808C1555.76 204.357 1556.92 201.529 1556.92 198.34C1556.92 194.414 1554.96 191.226 1551.05 188.769C1547.13 186.318 1541.87 185.087 1535.26 185.087C1528.65 185.087 1521.79 186.318 1515.42 188.769C1509.05 191.226 1503.3 194.658 1498.16 199.078C1493.02 203.498 1488.91 208.649 1485.85 214.544C1482.79 220.433 1481.26 226.937 1481.26 234.058C1481.26 243.629 1483.52 251.73 1488.06 258.357C1492.59 264.989 1498.71 269.961 1506.42 273.271C1514.14 276.587 1522.64 278.242 1531.95 278.242C1545.17 278.242 1557.17 276.094 1567.94 271.796C1578.71 267.504 1588.14 262.289 1596.23 256.15L1619 292.599C1611.65 298.987 1603.44 304.632 1594.39 309.54C1585.33 314.447 1575.41 318.257 1564.64 320.952C1553.87 323.647 1542.24 325 1529.75 325L1529.74 324.994Z" fill="white"/>
<path d="M1627 190.13V146.274H1766.5V190.13H1627ZM1732.46 325C1717.41 325 1704.52 321.687 1693.79 315.055C1683.07 308.417 1674.92 299.204 1669.37 287.416C1663.82 275.622 1661.04 261.991 1661.04 246.512V98H1717.29V246.512C1717.29 252.168 1718.15 257.196 1719.88 261.619C1721.6 266.043 1724.32 269.542 1728.02 272.123C1731.72 274.703 1736.53 275.994 1742.45 275.994C1747.38 275.994 1752.07 275.506 1756.51 274.517C1760.95 273.541 1765.14 272.187 1769.09 270.466L1785 311.369C1779.57 315.06 1772.42 318.252 1763.54 320.949C1754.66 323.646 1744.3 325 1732.46 325Z" fill="white"/>
<path d="M1909.78 325C1901.44 325 1893.53 324.196 1886.05 322.599C1878.57 320.996 1871.58 318.473 1865.09 315.029C1858.59 311.579 1852.51 307.027 1846.88 301.357C1841.23 295.686 1836.22 288.92 1831.8 281.035L1849.09 279.922V320.198H1810.1V262.188L1834.74 260.347C1838.91 266.256 1844.68 271.431 1852.03 275.86C1859.39 280.295 1867.05 283.681 1875.02 286.024C1882.98 288.367 1890.04 289.532 1896.17 289.532C1900.83 289.532 1904.75 289.043 1907.94 288.052C1911.13 287.073 1913.58 285.715 1915.3 283.99C1917.01 282.271 1917.88 280.295 1917.88 278.081C1917.88 276.6 1917.33 275.004 1916.22 273.273C1915.12 271.554 1913.1 269.829 1910.15 268.104C1907.21 266.384 1902.86 264.409 1897.1 262.188C1891.33 259.974 1883.67 257.514 1874.11 254.799C1859.63 250.614 1847.56 245.807 1837.88 240.387C1828.19 234.973 1820.96 228.446 1816.18 220.805C1811.4 213.171 1809 204.179 1809 193.835C1809 184.23 1811.58 175.425 1816.73 167.417C1821.87 159.422 1829.11 153.011 1838.43 148.203C1847.74 143.401 1858.79 141 1871.54 141C1881.84 141 1891.28 142.48 1899.86 145.429C1908.44 148.384 1916.35 153.063 1923.59 159.468C1930.82 165.879 1937.38 174.376 1943.27 184.959L1925.98 186.439V145.796H1964.96V203.439L1940.69 205.653C1936.27 199.004 1931.37 193.526 1925.98 189.213C1920.58 184.906 1914.76 181.701 1908.51 179.609C1902.25 177.517 1895.57 176.474 1888.46 176.474C1884.05 176.474 1880.24 176.905 1877.06 177.767C1873.87 178.63 1871.41 179.924 1869.7 181.649C1867.98 183.374 1867.12 185.343 1867.12 187.558C1867.12 189.289 1867.73 190.95 1868.96 192.547C1870.19 194.149 1872.33 195.816 1875.4 197.535C1878.47 199.26 1882.69 201.108 1888.09 203.077C1893.48 205.053 1900.23 207.268 1908.32 209.727C1922.54 213.917 1934.68 218.906 1944.73 224.693C1954.79 230.479 1962.51 237.315 1967.91 245.2C1973.3 253.085 1976 262.322 1976 272.911C1976 282.766 1973.18 291.63 1967.54 299.509C1961.9 307.394 1954.12 313.613 1944.18 318.164C1934.25 322.721 1922.79 325 1909.79 325H1909.78Z" fill="white"/>
<path d="M2012 324.995V279.454H2128.85C2138.19 279.454 2148.2 278.556 2158.86 276.765C2169.53 274.969 2179.59 271.441 2189.06 266.187C2198.52 260.929 2206.26 253.156 2212.25 242.875C2218.24 232.603 2221.24 218.975 2221.24 201.995C2221.24 185.016 2218.24 171.036 2212.25 160.759C2206.26 150.483 2198.52 142.771 2189.06 137.628C2179.59 132.489 2169.53 129.022 2158.86 127.231C2148.2 125.435 2138.19 124.541 2128.85 124.541H2012V79H2135.31C2152.57 79 2169.83 81.2729 2187.09 85.8094C2204.35 90.3552 2220.1 97.5257 2234.36 107.326C2248.62 117.13 2260.12 129.8 2268.88 145.34C2277.62 160.884 2282 179.766 2282 202C2282 224.234 2277.62 242.829 2268.88 258.48C2260.12 274.14 2248.62 286.875 2234.36 296.67C2220.1 306.474 2204.35 313.649 2187.09 318.186C2169.83 322.727 2152.57 325 2135.31 325H2012V324.995ZM2052.27 298.457V105.168H2110.51V298.457H2052.27Z" fill="white"/>
<path d="M2300 171.585V123.005H2386.01V171.585H2300ZM2406.48 320.995C2394.74 320.995 2384.37 318.956 2375.36 314.873C2366.35 310.79 2358.7 304.742 2352.43 296.705C2346.15 288.682 2341.37 278.611 2338.09 266.5C2334.82 254.389 2333.18 240.443 2333.18 224.65V123H2395.43V224.65C2395.43 230.099 2395.97 235.132 2397.07 239.755C2398.15 244.392 2400 248.47 2402.6 252.004C2405.18 255.547 2408.67 258.334 2413.04 260.378C2417.4 262.417 2423 263.441 2429.83 263.441C2435.57 263.441 2441.5 262.006 2447.65 259.151C2453.79 256.295 2460.13 252.078 2466.69 246.5C2473.24 240.922 2480 233.988 2486.97 225.679C2493.93 217.38 2501.09 207.922 2508.46 197.306V245.476C2498.91 258.265 2489.89 269.356 2481.43 278.744C2472.97 288.133 2464.71 295.962 2456.66 302.223C2448.6 308.483 2440.48 313.18 2432.29 316.303C2424.1 319.431 2415.5 321 2406.48 321V320.995ZM2449.08 171.585V123.005H2534.26V171.585H2449.08ZM2535.91 318.55C2524.98 318.55 2515.29 316.368 2506.83 312.017C2498.36 307.671 2491.67 301.199 2486.76 292.627C2481.85 284.055 2479.39 273.646 2479.39 261.397V123.005H2541.64V255.681C2541.64 260.041 2542.66 263.095 2544.71 264.867C2546.76 266.638 2549.15 267.52 2551.88 267.52C2554.06 267.52 2555.98 267.317 2557.61 266.906C2559.25 266.5 2560.61 266.159 2561.71 265.886L2574 309.568C2570.45 311.473 2565.2 313.443 2558.23 315.487C2551.27 317.531 2543.83 318.55 2535.91 318.55H2535.91Z" fill="white"/>
<path d="M2696.47 321C2682.26 321 2668.4 318.88 2654.89 314.636C2641.37 310.401 2629.15 304.106 2618.23 295.756C2607.3 287.411 2598.7 277.076 2592.42 264.765C2586.14 252.454 2583 238.227 2583 222.08C2583 205.933 2586.14 191.432 2592.42 178.574C2598.7 165.715 2607.23 154.703 2618.02 145.528C2628.81 136.366 2641.02 129.316 2654.68 124.389C2668.34 119.468 2682.67 117 2697.69 117C2715.71 117 2731.55 119.533 2745.2 124.594C2758.86 129.659 2769.58 136.909 2777.36 146.349C2785.15 155.789 2789.04 166.94 2789.04 179.803C2789.04 192.666 2785.21 204.295 2777.57 213.049C2769.92 221.806 2759.96 228.375 2747.67 232.749C2735.38 237.123 2722.27 239.313 2708.35 239.313C2691.68 239.313 2677.28 237.263 2665.13 233.157C2652.98 229.052 2640.89 223.861 2628.88 217.562V182.674C2643.89 189.795 2656.39 194.164 2666.36 195.807C2676.32 197.449 2684.99 198.274 2692.37 198.274C2700.01 198.001 2706.36 197.11 2711.41 195.602C2716.47 194.104 2720.29 191.98 2722.88 189.243C2725.47 186.511 2726.77 183.356 2726.77 179.803C2726.77 175.429 2724.58 171.871 2720.22 169.13C2715.84 166.397 2709.98 165.024 2702.61 165.024C2695.23 165.024 2687.58 166.393 2680.48 169.13C2673.38 171.866 2666.96 175.693 2661.23 180.62C2655.49 185.546 2650.92 191.293 2647.51 197.862C2644.09 204.425 2642.39 211.68 2642.39 219.612C2642.39 230.286 2644.92 239.313 2649.97 246.702C2655.02 254.096 2661.85 259.635 2670.45 263.327C2679.05 267.024 2688.54 268.87 2698.92 268.87C2713.66 268.87 2727.04 266.477 2739.07 261.685C2751.08 256.903 2761.6 251.086 2770.6 244.244L2796 284.879C2787.81 291.999 2778.65 298.289 2768.55 303.763C2758.45 309.236 2747.38 313.476 2735.38 316.482C2723.36 319.488 2710.39 320.995 2696.46 320.995L2696.47 321Z" fill="white"/>
<path d="M2802 171.271V122.588H2956.51V171.271H2802ZM2918.8 320.995C2902.13 320.995 2887.86 317.315 2875.98 309.955C2864.09 302.586 2855.07 292.359 2848.93 279.27C2842.78 266.182 2839.71 251.045 2839.71 233.861V69H2902V233.861C2902 240.135 2902.95 245.724 2904.87 250.634C2906.78 255.544 2909.79 259.427 2913.89 262.294C2917.98 265.156 2923.31 266.589 2929.86 266.589C2935.33 266.589 2940.52 266.043 2945.44 264.952C2950.36 263.87 2955 262.368 2959.38 260.454L2977 305.863C2970.98 309.96 2963.06 313.506 2953.23 316.502C2943.4 319.497 2931.92 321 2918.8 321V320.995Z" fill="white"/>
</svg>
